<svg id="visual" viewBox="0 0 900 600" width="900" height="600" xmlns="http://www.w3.org/2000/svg" xmlns:xlink="http://www.w3.org/1999/xlink" version="1.1"><path d="M292 600L306.2 585.7C320.3 571.3 348.7 542.7 345.5 514.2C342.3 485.7 307.7 457.3 273.2 428.8C238.7 400.3 204.3 371.7 291.2 343C378 314.3 586 285.7 626.7 257C667.3 228.3 540.7 199.7 416.2 171.2C291.7 142.7 169.3 114.3 243.5 85.8C317.7 57.3 588.3 28.7 723.7 14.3L859 0L900 0L900 14.3C900 28.7 900 57.3 900 85.8C900 114.3 900 142.7 900 171.2C900 199.7 900 228.3 900 257C900 285.7 900 314.3 900 343C900 371.7 900 400.3 900 428.8C900 457.3 900 485.7 900 514.2C900 542.7 900 571.3 900 585.7L900 600Z" fill="#fff" stroke-linecap="round" stroke-linejoin="miter"></path></svg>