<svg xmlns="http://www.w3.org/2000/svg" xmlns:xlink="http://www.w3.org/1999/xlink" width="75" zoomAndPan="magnify" viewBox="0 0 56.879997 56.999997" height="75" preserveAspectRatio="xMidYMid meet" version="1.0"><defs><clipPath id="2ec0432a49"><path d="M 18 0.0585938 L 51 0.0585938 L 51 35 L 18 35 Z M 18 0.0585938 " clip-rule="nonzero"/></clipPath><clipPath id="6718cf1230"><path d="M 41.378906 48 L 53.675781 48 L 53.675781 54.660156 L 41.378906 54.660156 Z M 41.378906 48 " clip-rule="nonzero"/></clipPath><clipPath id="b806cb5232"><path d="M 2.828125 11 L 10 11 L 10 24 L 2.828125 24 Z M 2.828125 11 " clip-rule="nonzero"/></clipPath></defs><g clip-path="url(#2ec0432a49)"><path fill="#dfdf59" d="M 40.613281 3.792969 L 46.378906 8.628906 C 45.453125 9.734375 45.601562 11.386719 46.707031 12.3125 L 31.285156 30.691406 C 30.179688 29.757812 28.53125 29.90625 27.601562 31.015625 L 24.746094 28.621094 C 27.183594 29.332031 29.734375 27.933594 30.449219 25.492188 C 31.054688 23.414062 30.128906 21.195312 28.222656 20.160156 L 24.945312 18.390625 L 36.921875 4.113281 C 38.035156 5.042969 39.6875 4.898438 40.613281 3.792969 Z M 38.425781 0.0585938 L 22.691406 18.8125 L 27.53125 21.429688 C 29.0625 22.261719 29.632812 24.164062 28.808594 25.695312 C 28.097656 27.03125 26.53125 27.664062 25.089844 27.214844 L 18.277344 25.085938 L 29.785156 34.742188 L 50.429688 10.128906 L 38.425781 0.0585938 " fill-opacity="1" fill-rule="nonzero"/></g><g clip-path="url(#6718cf1230)"><path fill="#dfdf59" d="M 51.515625 50.601562 C 52.019531 50.597656 52.425781 51 52.429688 51.5 C 52.429688 51.507812 52.429688 51.519531 52.429688 51.527344 C 52.429688 52.027344 52.027344 52.433594 51.523438 52.433594 C 51.023438 52.433594 50.617188 52.027344 50.617188 51.527344 C 50.613281 51.023438 51.007812 50.613281 51.507812 50.601562 C 51.507812 50.601562 51.515625 50.601562 51.515625 50.601562 Z M 42.757812 48.390625 C 42.089844 48.390625 41.542969 48.941406 41.542969 49.609375 L 41.542969 53.441406 C 41.542969 54.117188 42.089844 54.660156 42.757812 54.660156 L 52.460938 54.660156 C 53.128906 54.660156 53.675781 54.117188 53.675781 53.441406 L 53.675781 49.609375 C 53.675781 48.941406 53.128906 48.390625 52.460938 48.390625 L 42.757812 48.390625 " fill-opacity="1" fill-rule="nonzero"/></g><g clip-path="url(#b806cb5232)"><path fill="#dfdf59" d="M 6.011719 20.210938 C 6.515625 20.195312 6.933594 20.589844 6.949219 21.085938 C 6.953125 21.097656 6.953125 21.105469 6.953125 21.117188 C 6.953125 21.617188 6.546875 22.023438 6.042969 22.023438 C 5.542969 22.023438 5.136719 21.621094 5.136719 21.117188 C 5.136719 20.628906 5.523438 20.226562 6.011719 20.210938 Z M 4.125 11.136719 C 3.453125 11.136719 2.910156 11.679688 2.910156 12.351562 L 2.910156 22.050781 C 2.910156 22.726562 3.453125 23.269531 4.125 23.269531 L 7.960938 23.269531 C 8.628906 23.269531 9.179688 22.726562 9.179688 22.050781 L 9.179688 12.351562 C 9.179688 11.679688 8.628906 11.136719 7.960938 11.136719 L 4.125 11.136719 " fill-opacity="1" fill-rule="nonzero"/></g><path fill="#dfdf59" d="M 42.003906 9.714844 C 42.003906 8.914062 41.355469 8.265625 40.554688 8.265625 C 39.753906 8.261719 39.101562 8.910156 39.101562 9.714844 C 39.101562 10.515625 39.75 11.164062 40.554688 11.171875 C 41.347656 11.171875 42.003906 10.519531 42.003906 9.71875 C 42.003906 9.714844 42.003906 9.714844 42.003906 9.714844 " fill-opacity="1" fill-rule="nonzero"/><path fill="#dfdf59" d="M 31.847656 14.804688 L 32.359375 15.230469 C 32.910156 14.921875 33.597656 14.984375 34.082031 15.390625 L 33.40625 16.207031 C 33.207031 16.042969 32.910156 16.066406 32.746094 16.265625 C 32.582031 16.464844 32.605469 16.753906 32.804688 16.921875 C 32.945312 17.039062 33.136719 17.0625 33.308594 16.988281 L 34.175781 16.628906 C 34.957031 16.3125 35.84375 16.691406 36.164062 17.472656 C 36.292969 17.792969 36.308594 18.140625 36.210938 18.46875 L 36.746094 18.921875 L 36.054688 19.746094 L 35.566406 19.332031 C 35.003906 19.6875 34.28125 19.636719 33.769531 19.210938 L 34.453125 18.402344 C 34.648438 18.566406 34.941406 18.542969 35.105469 18.34375 C 35.277344 18.148438 35.246094 17.855469 35.050781 17.691406 C 34.917969 17.578125 34.738281 17.550781 34.578125 17.613281 L 33.679688 17.976562 C 32.898438 18.296875 32.011719 17.917969 31.691406 17.136719 C 31.554688 16.792969 31.542969 16.410156 31.667969 16.054688 L 31.160156 15.628906 Z M 32.75 12.613281 C 32.695312 12.613281 32.644531 12.621094 32.589844 12.625 C 30.539062 12.761719 28.988281 14.527344 29.121094 16.578125 C 29.125 16.632812 29.128906 16.6875 29.132812 16.738281 C 29.472656 19.839844 32.191406 22.125 35.304688 21.917969 C 37.355469 21.785156 38.910156 20.011719 38.773438 17.960938 C 38.769531 17.90625 38.765625 17.855469 38.761719 17.800781 C 38.425781 14.765625 35.804688 12.503906 32.75 12.613281 " fill-opacity="1" fill-rule="nonzero"/><path fill="#dfdf59" d="M 25.453125 26.050781 L 18.542969 23.894531 C 17.761719 23.652344 17.058594 23.214844 16.492188 22.628906 L 14.78125 20.859375 L 10.589844 22.042969 L 10.589844 12.363281 L 11.777344 12.363281 L 19.46875 10.152344 C 20.007812 9.992188 20.578125 9.964844 21.125 10.066406 L 27.476562 11.214844 L 22.863281 16.730469 L 21.242188 16.730469 C 20.550781 16.730469 19.988281 17.292969 19.988281 17.984375 C 19.988281 18.445312 20.238281 18.867188 20.640625 19.089844 L 26.949219 22.503906 C 27.886719 23.011719 28.238281 24.183594 27.726562 25.125 C 27.289062 25.933594 26.335938 26.324219 25.453125 26.050781 " fill-opacity="1" fill-rule="nonzero"/><path fill="#dfdf59" d="M 21.394531 34.582031 L 27.117188 38.539062 C 28.136719 39.242188 29.34375 39.613281 30.578125 39.613281 L 38.164062 39.613281 C 38.511719 39.613281 38.789062 39.332031 38.789062 38.984375 C 38.789062 38.640625 38.511719 38.359375 38.164062 38.359375 L 33.394531 38.359375 C 32.347656 38.351562 31.5 37.5 31.503906 36.453125 C 31.507812 35.410156 32.351562 34.566406 33.394531 34.5625 L 43.40625 34.5625 C 46.410156 34.5625 49.109375 36.410156 50.203125 39.214844 L 52.90625 46.152344 C 53.03125 46.464844 52.875 46.816406 52.5625 46.9375 C 52.492188 46.96875 52.414062 46.980469 52.335938 46.980469 L 41.988281 46.980469 C 41.238281 45.84375 39.976562 45.136719 38.609375 45.082031 L 29.113281 45.082031 C 27.945312 45.082031 26.820312 44.664062 25.933594 43.902344 L 18.886719 37.824219 C 18.027344 37.082031 17.933594 35.785156 18.671875 34.925781 C 19.363281 34.136719 20.535156 33.984375 21.394531 34.582031 " fill-opacity="1" fill-rule="nonzero"/></svg>