<svg xmlns="http://www.w3.org/2000/svg" xmlns:xlink="http://www.w3.org/1999/xlink" width="75" zoomAndPan="magnify" viewBox="0 0 56.879997 56.999997" height="75" preserveAspectRatio="xMidYMid meet" version="1.0"><defs><clipPath id="9565951150"><path d="M 0 5.71875 L 56.761719 5.71875 L 56.761719 52 L 0 52 Z M 0 5.71875 " clip-rule="nonzero"/></clipPath></defs><path fill="#dfdf59" d="M 25.929688 33.09375 C 22.753906 33.09375 20.167969 30.511719 20.167969 27.332031 C 20.167969 24.152344 22.753906 21.570312 25.929688 21.570312 C 29.109375 21.570312 31.695312 24.15625 31.695312 27.335938 C 31.695312 30.515625 29.109375 33.09375 25.929688 33.09375 Z M 25.929688 23.59375 C 23.867188 23.59375 22.191406 25.273438 22.191406 27.335938 C 22.191406 29.398438 23.867188 31.074219 25.929688 31.074219 C 27.996094 31.074219 29.671875 29.398438 29.671875 27.335938 C 29.671875 25.273438 27.996094 23.59375 25.929688 23.59375 Z M 25.929688 23.59375 " fill-opacity="1" fill-rule="nonzero"/><path fill="#dfdf59" d="M 34.785156 42.980469 L 17.078125 42.980469 C 16.519531 42.980469 16.066406 42.527344 16.066406 41.96875 L 16.066406 39.835938 C 16.066406 36.8125 18.527344 34.351562 21.550781 34.351562 L 30.3125 34.351562 C 33.335938 34.351562 35.796875 36.8125 35.796875 39.835938 L 35.796875 41.96875 C 35.796875 42.527344 35.34375 42.980469 34.785156 42.980469 Z M 18.085938 40.957031 L 33.773438 40.957031 L 33.773438 39.832031 C 33.773438 37.921875 32.222656 36.371094 30.3125 36.371094 L 21.550781 36.371094 C 19.640625 36.371094 18.085938 37.921875 18.085938 39.832031 Z M 18.085938 40.957031 " fill-opacity="1" fill-rule="nonzero"/><g clip-path="url(#9565951150)"><path fill="#dfdf59" d="M 56.554688 14.785156 C 56.554688 9.785156 51.164062 5.71875 44.542969 5.71875 C 37.917969 5.71875 32.53125 9.785156 32.53125 14.785156 C 32.53125 15.765625 32.746094 16.722656 33.140625 17.636719 L 5.269531 17.636719 C 4.015625 17.636719 2.992188 18.730469 2.992188 20.074219 L 2.992188 44.242188 L 2.203125 44.242188 C 0.996094 44.242188 0.0117188 45.175781 0.0117188 46.320312 C 0.0117188 49.433594 2.765625 51.96875 6.148438 51.96875 L 45.566406 51.96875 C 48.949219 51.96875 51.699219 49.433594 51.699219 46.320312 C 51.699219 45.175781 50.714844 44.242188 49.503906 44.242188 L 48.722656 44.242188 L 48.722656 23.28125 C 53.289062 21.996094 56.554688 18.675781 56.554688 14.785156 Z M 44.542969 7.738281 C 50.050781 7.738281 54.53125 10.902344 54.53125 14.789062 C 54.53125 18.675781 50.050781 21.839844 44.542969 21.839844 C 43.367188 21.839844 42.21875 21.695312 41.121094 21.410156 C 40.617188 21.277344 40.257812 21.519531 39.839844 21.800781 C 39.269531 22.191406 38.21875 22.902344 36.394531 23.382812 C 37.210938 21.792969 37.609375 19.941406 36.765625 19.199219 C 35.316406 17.929688 34.550781 16.40625 34.550781 14.792969 C 34.554688 10.902344 39.035156 7.738281 44.542969 7.738281 Z M 49.507812 46.265625 C 49.613281 46.265625 49.671875 46.316406 49.679688 46.320312 C 49.679688 48.320312 47.835938 49.945312 45.566406 49.945312 L 6.148438 49.945312 C 3.878906 49.945312 2.03125 48.320312 2.03125 46.335938 C 2.039062 46.320312 2.097656 46.265625 2.203125 46.265625 L 17.902344 46.257812 C 18.59375 46.695312 19.625 47.21875 20.605469 47.21875 L 31.109375 47.21875 C 32.246094 47.21875 33.289062 46.867188 33.90625 46.296875 Z M 46.703125 44.246094 L 33.910156 44.269531 C 33.417969 44.273438 32.960938 44.441406 32.621094 44.75 C 32.394531 44.953125 31.863281 45.191406 31.113281 45.191406 L 20.605469 45.191406 C 20.234375 45.191406 19.609375 44.945312 18.984375 44.546875 C 18.667969 44.347656 18.304688 44.242188 17.9375 44.242188 L 5.011719 44.242188 L 5.011719 20.074219 C 5.011719 19.820312 5.164062 19.65625 5.269531 19.65625 L 34.40625 19.65625 C 34.660156 19.960938 34.929688 20.253906 35.230469 20.53125 C 35.199219 21.070312 34.769531 22.566406 33.773438 23.722656 C 33.4375 24.109375 33.378906 24.648438 33.621094 25.09375 C 33.835938 25.5 34.25 25.742188 34.703125 25.742188 C 34.757812 25.742188 34.8125 25.738281 34.867188 25.730469 C 38.304688 25.285156 40.179688 24.015625 40.980469 23.476562 C 40.984375 23.46875 40.992188 23.46875 41 23.460938 C 42.144531 23.726562 43.335938 23.863281 44.542969 23.863281 C 45.285156 23.863281 46.003906 23.804688 46.707031 23.707031 L 46.707031 44.246094 Z M 46.703125 44.246094 " fill-opacity="1" fill-rule="nonzero"/></g><path fill="#dfdf59" d="M 43.867188 13.804688 L 38.792969 13.804688 C 38.234375 13.804688 37.78125 13.355469 37.78125 12.796875 C 37.78125 12.238281 38.234375 11.785156 38.792969 11.785156 L 43.867188 11.785156 C 44.425781 11.785156 44.878906 12.238281 44.878906 12.796875 C 44.878906 13.355469 44.425781 13.804688 43.867188 13.804688 Z M 43.867188 13.804688 " fill-opacity="1" fill-rule="nonzero"/><path fill="#dfdf59" d="M 49.960938 17.605469 L 38.792969 17.605469 C 38.234375 17.605469 37.78125 17.15625 37.78125 16.597656 C 37.78125 16.039062 38.234375 15.585938 38.792969 15.585938 L 49.960938 15.585938 C 50.519531 15.585938 50.96875 16.039062 50.96875 16.597656 C 50.972656 17.15625 50.519531 17.605469 49.960938 17.605469 Z M 49.960938 17.605469 " fill-opacity="1" fill-rule="nonzero"/></svg>