<svg xmlns="http://www.w3.org/2000/svg" xmlns:xlink="http://www.w3.org/1999/xlink" width="75" zoomAndPan="magnify" viewBox="0 0 56.879997 56.999997" height="75" preserveAspectRatio="xMidYMid meet" version="1.0"><defs><clipPath id="9a389cd131"><path d="M 12 1.941406 L 44.75 1.941406 L 44.75 54 L 12 54 Z M 12 1.941406 " clip-rule="nonzero"/></clipPath></defs><g clip-path="url(#9a389cd131)"><path fill="#dfdf59" d="M 29.128906 2.460938 C 29.027344 2.296875 28.890625 2.167969 28.722656 2.074219 C 28.550781 1.984375 28.371094 1.9375 28.175781 1.9375 C 27.984375 1.9375 27.800781 1.984375 27.632812 2.074219 C 27.464844 2.167969 27.328125 2.296875 27.226562 2.460938 C 26.617188 3.566406 12.316406 29.703125 12.316406 38.058594 C 12.316406 38.578125 12.339844 39.09375 12.390625 39.613281 C 12.441406 40.128906 12.519531 40.640625 12.621094 41.152344 C 12.722656 41.660156 12.847656 42.164062 13 42.660156 C 13.148438 43.160156 13.324219 43.648438 13.523438 44.128906 C 13.722656 44.605469 13.945312 45.074219 14.1875 45.535156 C 14.433594 45.992188 14.699219 46.4375 14.988281 46.871094 C 15.277344 47.300781 15.585938 47.71875 15.917969 48.121094 C 16.246094 48.519531 16.59375 48.90625 16.960938 49.273438 C 17.328125 49.640625 17.714844 49.988281 18.113281 50.316406 C 18.515625 50.648438 18.933594 50.957031 19.363281 51.246094 C 19.796875 51.535156 20.242188 51.800781 20.699219 52.046875 C 21.15625 52.289062 21.628906 52.511719 22.105469 52.710938 C 22.585938 52.910156 23.074219 53.085938 23.574219 53.234375 C 24.070312 53.386719 24.574219 53.511719 25.082031 53.613281 C 25.59375 53.714844 26.105469 53.792969 26.621094 53.84375 C 27.140625 53.894531 27.65625 53.917969 28.175781 53.917969 C 28.695312 53.917969 29.214844 53.894531 29.730469 53.84375 C 30.25 53.792969 30.761719 53.714844 31.269531 53.613281 C 31.78125 53.511719 32.285156 53.386719 32.78125 53.234375 C 33.277344 53.085938 33.765625 52.910156 34.246094 52.710938 C 34.726562 52.511719 35.195312 52.289062 35.652344 52.046875 C 36.113281 51.800781 36.558594 51.535156 36.988281 51.246094 C 37.421875 50.957031 37.835938 50.648438 38.238281 50.316406 C 38.640625 49.988281 39.023438 49.640625 39.390625 49.273438 C 39.761719 48.90625 40.109375 48.519531 40.4375 48.121094 C 40.765625 47.71875 41.078125 47.300781 41.363281 46.871094 C 41.652344 46.4375 41.921875 45.992188 42.164062 45.535156 C 42.410156 45.074219 42.632812 44.605469 42.832031 44.128906 C 43.03125 43.648438 43.203125 43.160156 43.355469 42.660156 C 43.507812 42.164062 43.632812 41.660156 43.734375 41.152344 C 43.835938 40.640625 43.910156 40.128906 43.960938 39.613281 C 44.011719 39.09375 44.039062 38.578125 44.039062 38.058594 C 44.039062 29.703125 29.734375 3.566406 29.128906 2.460938 Z M 28.175781 51.710938 C 27.277344 51.710938 26.386719 51.621094 25.507812 51.445312 C 24.625 51.269531 23.769531 51.007812 22.9375 50.664062 C 22.109375 50.316406 21.320312 49.894531 20.570312 49.394531 C 19.824219 48.898438 19.132812 48.328125 18.496094 47.691406 C 17.863281 47.058594 17.292969 46.367188 16.792969 45.617188 C 16.292969 44.871094 15.871094 44.082031 15.527344 43.253906 C 15.183594 42.421875 14.921875 41.566406 14.746094 40.683594 C 14.570312 39.804688 14.480469 38.914062 14.480469 38.015625 C 14.480469 31.4375 24.929688 11.355469 28.175781 5.273438 C 31.421875 11.355469 41.875 31.4375 41.875 38.058594 C 41.871094 38.953125 41.777344 39.84375 41.601562 40.722656 C 41.421875 41.601562 41.160156 42.453125 40.8125 43.28125 C 40.46875 44.109375 40.042969 44.898438 39.542969 45.640625 C 39.042969 46.386719 38.476562 47.074219 37.839844 47.707031 C 37.207031 48.34375 36.515625 48.90625 35.769531 49.40625 C 35.023438 49.902344 34.234375 50.324219 33.40625 50.667969 C 32.578125 51.011719 31.722656 51.269531 30.84375 51.445312 C 29.960938 51.621094 29.074219 51.710938 28.175781 51.710938 Z M 28.175781 51.710938 " fill-opacity="1" fill-rule="nonzero"/></g></svg>