<svg xmlns="http://www.w3.org/2000/svg" xmlns:xlink="http://www.w3.org/1999/xlink" width="75" zoomAndPan="magnify" viewBox="0 0 56.879997 56.999997" height="75" preserveAspectRatio="xMidYMid meet" version="1.0"><defs><clipPath id="ee33c74c02"><path d="M 31 32 L 51.984375 32 L 51.984375 56.9375 L 31 56.9375 Z M 31 32 " clip-rule="nonzero"/></clipPath></defs><path fill="#dfdf59" d="M 15.203125 6.050781 C 23.589844 0.046875 35.257812 1.984375 41.257812 10.375 C 47.261719 18.761719 45.324219 30.429688 36.9375 36.429688 C 28.546875 42.433594 16.882812 40.5 10.878906 32.109375 C 4.878906 23.71875 6.8125 12.054688 15.203125 6.050781 Z M 17.089844 8.691406 C 24.019531 3.730469 33.660156 5.332031 38.617188 12.261719 C 43.578125 19.191406 41.980469 28.832031 35.046875 33.789062 C 28.117188 38.75 18.476562 37.152344 13.519531 30.21875 C 8.558594 23.289062 10.160156 13.648438 17.089844 8.691406 Z M 17.089844 8.691406 " fill-opacity="1" fill-rule="evenodd"/><g clip-path="url(#ee33c74c02)"><path fill="#dfdf59" d="M 31.492188 36.507812 L 38.132812 32.109375 C 38.25 32.03125 38.382812 32.011719 38.523438 32.046875 C 38.667969 32.082031 38.78125 32.164062 38.867188 32.292969 L 51.367188 51.199219 C 51.449219 51.328125 51.480469 51.464844 51.457031 51.609375 C 51.433594 51.753906 51.363281 51.867188 51.246094 51.941406 L 44.605469 56.339844 C 44.488281 56.417969 44.355469 56.441406 44.214844 56.40625 C 44.070312 56.367188 43.957031 56.285156 43.875 56.160156 L 31.375 37.253906 C 31.289062 37.125 31.257812 36.988281 31.28125 36.84375 C 31.304688 36.699219 31.375 36.585938 31.492188 36.507812 Z M 31.492188 36.507812 " fill-opacity="1" fill-rule="evenodd"/></g><path fill="#dfdf59" d="M 12.90625 16.871094 C 15.882812 12.570312 21.609375 8.003906 26.847656 7.46875 C 19.496094 5.972656 13.484375 12.53125 12.90625 16.871094 Z M 12.90625 16.871094 " fill-opacity="1" fill-rule="evenodd"/></svg>