<svg xmlns="http://www.w3.org/2000/svg" xmlns:xlink="http://www.w3.org/1999/xlink" width="75" zoomAndPan="magnify" viewBox="0 0 56.879997 56.999997" height="75" preserveAspectRatio="xMidYMid meet" version="1.0"><defs><clipPath id="ade9febb0a"><path d="M 0 34 L 52.390625 34 L 52.390625 52.449219 L 0 52.449219 Z M 0 34 " clip-rule="nonzero"/></clipPath><clipPath id="ad5842de00"><path d="M 10 0.0585938 L 52.390625 0.0585938 L 52.390625 34 L 10 34 Z M 10 0.0585938 " clip-rule="nonzero"/></clipPath></defs><g clip-path="url(#ade9febb0a)"><path fill="#dfdf59" d="M 39.003906 42.828125 C 37.820312 43.6875 36.917969 44.347656 36.652344 44.539062 L 34.628906 42.828125 Z M 50.1875 39.484375 C 50.1875 39.484375 37.4375 49.734375 37.425781 49.742188 C 36.347656 50.609375 34.730469 50.902344 33.496094 50.445312 L 22.652344 46.574219 C 22.183594 46.402344 21.691406 46.320312 21.191406 46.320312 L 16.5625 46.320312 L 16.5625 39.332031 L 20.632812 39.332031 C 21.566406 39.332031 22.492188 39.023438 23.246094 38.460938 C 24.21875 37.730469 24.554688 37.476562 24.6875 37.375 L 24.6875 37.378906 C 25.40625 36.835938 26.367188 36.597656 27.21875 36.765625 L 41.117188 39.042969 C 41.644531 39.128906 42.054688 39.550781 42.066406 40.023438 C 42.078125 40.3125 41.972656 40.578125 41.757812 40.789062 C 41.574219 40.976562 41.320312 41.082031 41.046875 41.082031 L 28.765625 41.082031 C 28.285156 41.082031 27.894531 41.472656 27.894531 41.957031 C 27.894531 42.4375 28.285156 42.828125 28.765625 42.828125 L 31.933594 42.828125 L 35.605469 45.941406 C 36.175781 46.414062 36.992188 46.445312 37.59375 46.011719 C 37.59375 46.011719 48.71875 37.890625 48.816406 37.820312 C 49.207031 37.535156 49.671875 37.597656 49.972656 37.75 C 50.148438 37.839844 50.558594 38.109375 50.558594 38.667969 C 50.558594 38.988281 50.417969 39.292969 50.1875 39.484375 Z M 14.820312 47.175781 L 1.742188 47.175781 L 1.742188 38.457031 L 14.820312 38.457031 Z M 50.761719 36.199219 C 49.789062 35.703125 48.648438 35.78125 47.789062 36.414062 C 47.777344 36.417969 45.921875 37.773438 43.726562 39.378906 C 43.449219 38.335938 42.546875 37.507812 41.398438 37.320312 L 27.527344 35.050781 C 26.210938 34.789062 24.757812 35.144531 23.636719 35.988281 L 22.199219 37.066406 C 21.75 37.402344 21.191406 37.589844 20.632812 37.589844 L 16.320312 37.589844 C 16.019531 37.070312 15.460938 36.714844 14.820312 36.714844 L 1.742188 36.714844 C 0.78125 36.714844 0 37.5 0 38.457031 L 0 47.175781 C 0 48.136719 0.78125 48.917969 1.742188 48.917969 L 14.820312 48.917969 C 15.457031 48.917969 16.007812 48.570312 16.308594 48.0625 L 21.191406 48.0625 C 21.488281 48.0625 21.785156 48.113281 22.070312 48.214844 L 32.902344 52.085938 C 33.480469 52.296875 34.113281 52.402344 34.75 52.402344 C 36.085938 52.402344 37.460938 51.945312 38.519531 51.097656 C 38.59375 51.039062 51.28125 40.84375 51.289062 40.835938 C 51.933594 40.300781 52.300781 39.511719 52.300781 38.667969 C 52.300781 37.628906 51.714844 36.679688 50.761719 36.199219 " fill-opacity="1" fill-rule="nonzero"/></g><g clip-path="url(#ad5842de00)"><path fill="#dfdf59" d="M 12.238281 11.195312 L 14.730469 2.476562 C 14.835938 2.105469 15.179688 1.847656 15.566406 1.847656 L 47.195312 1.847656 C 47.582031 1.847656 47.925781 2.105469 48.03125 2.476562 L 50.523438 11.195312 C 50.601562 11.464844 50.546875 11.738281 50.382812 11.960938 C 50.214844 12.179688 49.964844 12.308594 49.6875 12.308594 L 13.074219 12.308594 C 12.800781 12.308594 12.546875 12.179688 12.382812 11.960938 C 12.214844 11.738281 12.164062 11.464844 12.238281 11.195312 Z M 47.070312 31.484375 L 27.023438 31.484375 L 27.023438 19.28125 C 27.023438 18.320312 26.238281 17.539062 25.28125 17.539062 L 20.050781 17.539062 C 19.089844 17.539062 18.304688 18.320312 18.304688 19.28125 L 18.304688 31.484375 L 15.691406 31.484375 C 15.210938 31.484375 14.820312 31.09375 14.820312 30.613281 L 14.820312 14.050781 L 47.945312 14.050781 L 47.945312 30.613281 C 47.945312 31.09375 47.550781 31.484375 47.070312 31.484375 Z M 25.28125 31.484375 L 20.050781 31.484375 L 20.050781 19.28125 L 25.28125 19.28125 Z M 15.691406 33.226562 L 47.070312 33.226562 C 48.515625 33.226562 49.6875 32.058594 49.6875 30.613281 L 49.6875 14.050781 C 50.515625 14.050781 51.277344 13.671875 51.773438 13.007812 C 52.273438 12.347656 52.429688 11.515625 52.199219 10.71875 L 49.710938 2 C 49.390625 0.882812 48.355469 0.105469 47.195312 0.105469 L 15.566406 0.105469 C 14.40625 0.105469 13.371094 0.882812 13.050781 2 L 10.5625 10.71875 C 10.335938 11.515625 10.492188 12.347656 10.988281 13.007812 C 11.484375 13.671875 12.25 14.050781 13.074219 14.050781 L 13.074219 30.613281 C 13.074219 32.058594 14.246094 33.226562 15.691406 33.226562 " fill-opacity="1" fill-rule="nonzero"/></g><path fill="#dfdf59" d="M 42.714844 25.382812 C 42.714844 25.863281 42.320312 26.253906 41.84375 26.253906 L 33.125 26.253906 C 32.644531 26.253906 32.253906 25.863281 32.253906 25.382812 L 32.253906 20.152344 C 32.253906 19.671875 32.644531 19.28125 33.125 19.28125 L 41.84375 19.28125 C 42.320312 19.28125 42.714844 19.671875 42.714844 20.152344 Z M 41.84375 17.539062 L 33.125 17.539062 C 31.679688 17.539062 30.507812 18.710938 30.507812 20.152344 L 30.507812 25.382812 C 30.507812 26.828125 31.679688 28 33.125 28 L 41.84375 28 C 43.285156 28 44.457031 26.828125 44.457031 25.382812 L 44.457031 20.152344 C 44.457031 18.710938 43.285156 17.539062 41.84375 17.539062 " fill-opacity="1" fill-rule="nonzero"/><path fill="#dfdf59" d="M 20.921875 6.207031 L 41.84375 6.207031 C 42.320312 6.207031 42.714844 5.8125 42.714844 5.332031 C 42.714844 4.855469 42.320312 4.460938 41.84375 4.460938 L 20.921875 4.460938 C 20.441406 4.460938 20.050781 4.855469 20.050781 5.332031 C 20.050781 5.8125 20.441406 6.207031 20.921875 6.207031 " fill-opacity="1" fill-rule="nonzero"/><path fill="#dfdf59" d="M 18.304688 9.691406 L 44.457031 9.691406 C 44.9375 9.691406 45.328125 9.300781 45.328125 8.820312 C 45.328125 8.339844 44.9375 7.949219 44.457031 7.949219 L 18.304688 7.949219 C 17.824219 7.949219 17.433594 8.339844 17.433594 8.820312 C 17.433594 9.300781 17.824219 9.691406 18.304688 9.691406 " fill-opacity="1" fill-rule="nonzero"/></svg>